<svg width="1001" height="405" viewBox="0 0 1001 405" fill="none" xmlns="http://www.w3.org/2000/svg">
<path d="M105.61 83.0205H307.759V0H5.18331V240.759H112.089C115.113 230.797 121.376 222.864 130.879 216.96C140.381 210.688 152.476 207.551 167.162 207.551C187.031 207.551 202.149 212.348 212.516 221.941C222.882 231.535 228.066 245.372 228.066 263.452C228.066 281.111 223.514 295.39 214.412 306.288L240.723 311.001L281.886 296.916L323.447 206.531C322.393 204.079 321.267 201.652 320.069 199.249C310.135 179.324 294.369 163.089 272.772 150.544C251.606 137.998 224.826 131.726 192.43 131.726C174.289 131.726 157.443 134.309 141.893 139.474C126.343 144.64 114.249 151.282 105.61 159.399V83.0205Z" fill="white"/>
<path d="M334.866 258.175L312.054 311.344L245.57 337.787L186.777 327.956L137.635 339.959L92.6553 385.465L46.7742 370.503C56.8353 377.919 68.4563 384.299 81.6371 389.643C107.122 399.605 137.142 404.586 171.697 404.586C223.53 404.586 263.701 392.041 292.209 366.95C320.717 341.491 334.971 307.176 334.971 264.005C334.971 262.05 334.936 260.106 334.866 258.175Z" fill="white"/>
<path d="M9.90038 325.806L82.3786 349.675L111.749 317.682L127.676 313.763C127.446 313.598 127.218 313.432 126.991 313.264C117.056 305.515 110.793 295.922 108.202 284.483H0C0.816075 299.355 4.1162 313.13 9.90038 325.806Z" fill="white"/>
<path d="M361.197 196.79C361.18 198.433 361.172 200.086 361.172 201.748C361.172 264.999 373.163 314.618 397.144 350.605C421.488 386.593 460.549 404.586 514.325 404.586C568.101 404.586 606.98 386.593 630.961 350.605C644.723 330.261 654.596 305.561 660.578 276.504L649.19 294.515L574.794 236.096C574.068 246.203 572.987 255.292 571.553 263.363C568.646 279.357 562.651 292.444 553.567 302.622C544.847 312.437 531.766 317.344 514.325 317.344C496.884 317.344 483.622 312.437 474.538 302.622C465.817 292.444 460.004 279.357 457.097 263.363C454.703 249.89 453.295 233.581 452.872 214.436L419.001 188.211L370.197 175.815L361.197 196.79Z" fill="white"/>
<path d="M363.689 154.913L428.904 169.414L452.903 189.142C453.733 158.522 457.674 134.552 464.727 117.232C472.721 97.2389 489.254 87.2424 514.325 87.2424C539.396 87.2424 555.929 97.2389 563.923 117.232C571.916 136.861 575.913 165.033 575.913 201.748C575.913 207.48 575.835 212.988 575.679 218.271L644.867 270.625L665.757 241.015C666.905 228.568 667.478 215.479 667.478 201.748C667.478 139.224 655.306 89.9687 630.961 53.9812C606.98 17.9937 568.101 0 514.325 0C460.549 0 421.488 17.9937 397.144 53.9812C379.507 80.4485 368.355 114.092 363.689 154.913Z" fill="white"/>
<path d="M729.683 53.9812C705.702 89.9687 693.711 139.224 693.711 201.748C693.711 205.716 693.758 209.631 693.852 213.492L729.201 195.729L765.401 148.965L798.064 82.655L854.428 58.0538L998.671 167.2C994.894 120.799 983.171 83.0588 963.5 53.9812C939.519 17.9937 900.64 0 846.864 0C793.088 0 754.027 17.9937 729.683 53.9812Z" fill="white"/>
<path fill-rule="evenodd" clip-rule="evenodd" d="M998.771 168.456L855.869 66.0171L806.174 85.4619L778.84 149.715L738.358 204.328L694.354 226.388C697.132 278.024 708.908 319.43 729.683 350.605C754.027 386.593 793.088 404.586 846.864 404.586C900.64 404.586 939.519 386.593 963.5 350.605C987.845 314.618 1000.02 264.999 1000.02 201.748C1000.02 190.198 999.602 179.1 998.771 168.456ZM896.462 117.232C904.455 136.861 908.452 165.033 908.452 201.748C908.452 226.467 906.999 247.005 904.092 263.363C901.185 279.357 895.19 292.444 886.106 302.622C877.386 312.437 864.305 317.344 846.864 317.344C829.423 317.344 816.161 312.437 807.077 302.622C798.356 292.444 792.543 279.357 789.636 263.363C786.729 247.005 785.276 226.467 785.276 201.748C785.276 165.033 789.273 136.861 797.266 117.232C805.26 97.2389 821.793 87.2424 846.864 87.2424C871.935 87.2424 888.468 97.2389 896.462 117.232Z" fill="white"/>
</svg>
