<svg width="277" height="277" viewBox="0 0 277 277" fill="none" xmlns="http://www.w3.org/2000/svg">
<g opacity="0.2" filter="url(#filter0_d_1_326)">
<path d="M12.0703 252.86C16.527 252.86 20.1395 256.473 20.1396 260.93C20.1396 265.387 16.5271 269 12.0703 269C7.61337 269 4 265.387 4 260.93C4.00019 256.473 7.61349 252.86 12.0703 252.86ZM62.6426 252.86C67.0992 252.861 70.7117 256.473 70.7119 260.93C70.7119 265.387 67.0994 269 62.6426 269C58.1856 269 54.5723 265.387 54.5723 260.93C54.5725 256.473 58.1858 252.86 62.6426 252.86ZM113.215 252.86C117.671 252.861 121.284 256.473 121.284 260.93C121.284 265.386 117.672 269 113.215 269C108.758 269 105.145 265.387 105.145 260.93C105.145 256.473 108.758 252.86 113.215 252.86ZM163.786 252.86C168.243 252.86 171.856 256.473 171.856 260.93C171.856 265.387 168.243 269 163.786 269C159.329 269 155.716 265.387 155.716 260.93C155.716 256.473 159.329 252.86 163.786 252.86ZM214.358 252.86C218.815 252.86 222.429 256.473 222.429 260.93C222.429 265.387 218.815 269 214.358 269C209.902 269 206.289 265.386 206.289 260.93C206.289 256.473 209.902 252.861 214.358 252.86ZM264.93 252.86C269.386 252.861 272.999 256.473 272.999 260.93C272.999 265.387 269.386 269 264.93 269C260.473 269 256.859 265.387 256.859 260.93C256.86 256.473 260.473 252.86 264.93 252.86ZM12.0703 202.288C16.5271 202.288 20.1396 205.902 20.1396 210.358C20.1395 214.815 16.527 218.428 12.0703 218.428C7.61348 218.428 4.00018 214.815 4 210.358C4 205.901 7.61337 202.288 12.0703 202.288ZM59.4141 202.288C63.8709 202.288 67.4844 205.902 67.4844 210.358C67.4842 214.815 63.8708 218.428 59.4141 218.428C54.9572 218.428 51.3439 214.815 51.3438 210.358C51.3438 205.901 54.9571 202.288 59.4141 202.288ZM109.986 202.288C114.443 202.288 118.056 205.902 118.056 210.358C118.055 214.815 114.443 218.428 109.986 218.428C105.529 218.428 101.916 214.815 101.916 210.358C101.916 205.901 105.529 202.288 109.986 202.288ZM160.558 202.288C165.015 202.288 168.628 205.901 168.628 210.358C168.628 214.815 165.014 218.428 160.558 218.428C156.101 218.428 152.487 214.815 152.487 210.358C152.487 205.901 156.101 202.288 160.558 202.288ZM211.131 202.288C215.588 202.288 219.2 205.902 219.2 210.358C219.2 214.815 215.587 218.428 211.131 218.428C206.674 218.428 203.061 214.815 203.061 210.358C203.061 205.901 206.674 202.288 211.131 202.288ZM261.702 202.288C266.159 202.288 269.772 205.901 269.772 210.358C269.772 214.815 266.159 218.428 261.702 218.428C257.245 218.428 253.632 214.815 253.632 210.358C253.632 205.901 257.245 202.288 261.702 202.288ZM12.0703 151.716C16.5271 151.716 20.1396 155.329 20.1396 159.786C20.1396 164.243 16.5271 167.856 12.0703 167.856C7.61339 167.856 4.00002 164.243 4 159.786C4 155.329 7.61337 151.716 12.0703 151.716ZM62.6426 151.716C67.0994 151.716 70.7119 155.329 70.7119 159.786C70.7119 164.243 67.0994 167.856 62.6426 167.856C58.1857 167.856 54.5723 164.243 54.5723 159.786C54.5723 155.329 58.1856 151.716 62.6426 151.716ZM113.215 151.716C117.672 151.716 121.284 155.329 121.284 159.786C121.284 164.243 117.672 167.856 113.215 167.856C108.758 167.856 105.145 164.243 105.145 159.786C105.145 155.329 108.758 151.716 113.215 151.716ZM163.786 151.716C168.243 151.716 171.856 155.329 171.856 159.786C171.856 164.243 168.243 167.856 163.786 167.856C159.329 167.856 155.716 164.243 155.716 159.786C155.716 155.329 159.329 151.716 163.786 151.716ZM214.358 151.716C218.815 151.716 222.429 155.329 222.429 159.786C222.429 164.243 218.815 167.856 214.358 167.856C209.902 167.856 206.289 164.243 206.289 159.786C206.289 155.329 209.902 151.716 214.358 151.716ZM264.93 151.716C269.386 151.716 272.999 155.329 272.999 159.786C272.999 164.243 269.386 167.856 264.93 167.856C260.473 167.856 256.859 164.243 256.859 159.786C256.859 155.329 260.473 151.716 264.93 151.716ZM12.0703 101.144C16.5271 101.144 20.1396 104.757 20.1396 109.214C20.1396 113.671 16.5271 117.284 12.0703 117.284C7.61337 117.284 4 113.671 4 109.214C4.00003 104.757 7.6134 101.144 12.0703 101.144ZM59.4141 101.144C63.8709 101.144 67.4843 104.757 67.4844 109.214C67.4844 113.671 63.8709 117.284 59.4141 117.284C54.9571 117.284 51.3438 113.671 51.3438 109.214C51.3438 104.757 54.9571 101.144 59.4141 101.144ZM109.986 101.144C114.443 101.144 118.056 104.757 118.056 109.214C118.056 113.671 114.443 117.284 109.986 117.284C105.529 117.284 101.916 113.671 101.916 109.214C101.916 104.757 105.529 101.144 109.986 101.144ZM160.558 101.144C165.015 101.144 168.628 104.757 168.628 109.214C168.628 113.671 165.015 117.284 160.558 117.284C156.101 117.284 152.487 113.671 152.487 109.214C152.487 104.757 156.101 101.144 160.558 101.144ZM211.131 101.144C215.588 101.144 219.2 104.757 219.2 109.214C219.2 113.671 215.588 117.284 211.131 117.284C206.674 117.284 203.061 113.671 203.061 109.214C203.061 104.757 206.674 101.144 211.131 101.144ZM261.702 101.144C266.159 101.144 269.772 104.757 269.772 109.214C269.772 113.671 266.159 117.284 261.702 117.284C257.245 117.284 253.632 113.671 253.632 109.214C253.632 104.757 257.245 101.144 261.702 101.144ZM12.0703 50.5723C16.527 50.5724 20.1395 54.1849 20.1396 58.6416C20.1396 63.0985 16.5271 66.7118 12.0703 66.7119C7.61337 66.7119 4 63.0985 4 58.6416C4.0002 54.1848 7.6135 50.5723 12.0703 50.5723ZM62.6426 50.5723C67.0992 50.5724 70.7117 54.1849 70.7119 58.6416C70.7119 63.0984 67.0994 66.7117 62.6426 66.7119C58.1856 66.7119 54.5723 63.0985 54.5723 58.6416C54.5725 54.1848 58.1858 50.5723 62.6426 50.5723ZM113.215 50.5723C117.671 50.5725 121.284 54.185 121.284 58.6416C121.284 63.0984 117.672 66.7117 113.215 66.7119C108.758 66.7119 105.145 63.0985 105.145 58.6416C105.145 54.1848 108.758 50.5723 113.215 50.5723ZM163.786 50.5723C168.243 50.5723 171.856 54.1848 171.856 58.6416C171.856 63.0985 168.243 66.7119 163.786 66.7119C159.329 66.7119 155.716 63.0985 155.716 58.6416C155.716 54.1848 159.329 50.5723 163.786 50.5723ZM214.358 50.5723C218.815 50.5723 222.429 54.1848 222.429 58.6416C222.429 63.0985 218.815 66.7119 214.358 66.7119C209.902 66.7117 206.289 63.0984 206.289 58.6416C206.289 54.185 209.902 50.5725 214.358 50.5723ZM264.93 50.5723C269.386 50.5724 272.999 54.1849 272.999 58.6416C272.999 63.0984 269.386 66.7117 264.93 66.7119C260.473 66.7119 256.859 63.0985 256.859 58.6416C256.86 54.1848 260.473 50.5723 264.93 50.5723ZM12.0703 0.000976562C16.5272 0.000976562 20.1405 3.61351 20.1406 8.07031C20.1406 12.5273 16.5273 16.1406 12.0703 16.1406C7.6135 16.1405 4.00098 12.5272 4.00098 8.07031C4.00114 3.6136 7.6136 0.00112913 12.0703 0.000976562ZM59.4141 0C63.8709 9.48328e-05 67.4844 3.61343 67.4844 8.07031C67.4842 12.527 63.8708 16.1396 59.4141 16.1396C54.9572 16.1396 51.3439 12.5271 51.3438 8.07031C51.3438 3.61337 54.9571 0 59.4141 0ZM109.986 0C114.443 0.000127817 118.056 3.61345 118.056 8.07031C118.055 12.527 114.443 16.1395 109.986 16.1396C105.529 16.1396 101.916 12.5271 101.916 8.07031C101.916 3.61337 105.529 0 109.986 0ZM160.558 0C165.015 0 168.628 3.61337 168.628 8.07031C168.628 12.5271 165.014 16.1396 160.558 16.1396C156.101 16.1396 152.487 12.5271 152.487 8.07031C152.487 3.6134 156.101 3.29869e-05 160.558 0ZM211.131 0C215.588 0.000230894 219.2 3.61352 219.2 8.07031C219.2 12.527 215.587 16.1394 211.131 16.1396C206.674 16.1396 203.061 12.5271 203.061 8.07031C203.061 3.61337 206.674 0 211.131 0ZM261.702 0C266.159 1.23697e-05 269.772 3.61338 269.772 8.07031C269.772 12.5271 266.159 16.1396 261.702 16.1396C257.245 16.1396 253.632 12.5271 253.632 8.07031C253.632 3.61337 257.245 0 261.702 0Z" fill="#0056D6"/>
</g>
<defs>
<filter id="filter0_d_1_326" x="0" y="0" width="276.999" height="277" filterUnits="userSpaceOnUse" color-interpolation-filters="sRGB">
<feFlood flood-opacity="0" result="BackgroundImageFix"/>
<feColorMatrix in="SourceAlpha" type="matrix" values="0 0 0 0 0 0 0 0 0 0 0 0 0 0 0 0 0 0 127 0" result="hardAlpha"/>
<feOffset dy="4"/>
<feGaussianBlur stdDeviation="2"/>
<feComposite in2="hardAlpha" operator="out"/>
<feColorMatrix type="matrix" values="0 0 0 0 0 0 0 0 0 0 0 0 0 0 0 0 0 0 0.25 0"/>
<feBlend mode="normal" in2="BackgroundImageFix" result="effect1_dropShadow_1_326"/>
<feBlend mode="normal" in="SourceGraphic" in2="effect1_dropShadow_1_326" result="shape"/>
</filter>
</defs>
</svg>
